# xmcd CD database file
#
# Track frame offsets:
#	183
#	16720
#	35990
#	53623
#	72525
#	92185
#	107115
#	123073
#	142330
#	164748
#	181828
#	198020
#	214273
#	233518
#	249915
#	266223
#
# Disc length: 3760 seconds
#
# Revision: 22
# Processed by: cddbd v1.5.2PL0 Copyright (c) Steve Scherf et al.
# Submitted via: CDex 1.51
#
DISCID=e60eae10
DTITLE=Rainhard Fendrich - Das Beste von Rainhard Fendrich
DYEAR=1992
DGENRE=Austropop
TTITLE0=Schickeria
TTITLE1=Razzia
TTITLE2=Oben ohne
TTITLE3=Es lebe der Sport
TTITLE4=Auf und davon
TTITLE5=Strada del Sole
TTITLE6=Ich bin ein Negerant Madam
TTITLE7=Macho Macho
TTITLE8=Zwischen Eins und Vier
TTITLE9=Es tuat so weh, wenn ma verliert
TTITLE10=Die feinen Damen
TTITLE11=Weus'd a Herz hast wia a Bergwerk
TTITLE12=Vü schöner is des G'fühl
TTITLE13=Zweierbeziehung
TTITLE14=Sonntagnachmittag
TTITLE15=Haben Sie Wien schon bei Nacht geseh'n
EXTD=YEAR: 1992
EXTT0=
EXTT1=
EXTT2=
EXTT3=
EXTT4=
EXTT5=
EXTT6=
EXTT7=
EXTT8=
EXTT9=
EXTT10=
EXTT11=
EXTT12=
EXTT13=
EXTT14=
EXTT15=
PLAYORDER=
